<?xml version="1.0" standalone="no"?><!DOCTYPE svg PUBLIC "-//W3C//DTD SVG 1.1//EN" "http://www.w3.org/Graphics/SVG/1.1/DTD/svg11.dtd"><svg t="1754405818301" class="icon" viewBox="0 0 2800 1024" version="1.1" xmlns="http://www.w3.org/2000/svg" p-id="4517" width="175" height="64" xmlns:xlink="http://www.w3.org/1999/xlink"><path d="M512.123077 15.753846h1732.923077c274.116923 0 496.246154 222.129231 496.246154 496.246154S2519.163077 1008.246154 2245.046154 1008.246154H512.123077C238.006154 1008.246154 15.876923 786.116923 15.876923 512S238.006154 15.753846 512.123077 15.753846z" fill="#FFFFFF" fill-opacity=".6" opacity=".2" p-id="4518"></path><path d="M2245.046154 1016.123077H512.123077C234.855385 1016.123077 8 789.267692 8 512S234.855385 7.876923 512.123077 7.876923h1732.923077c277.267692 0 504.123077 226.855385 504.123077 504.123077s-226.855385 504.123077-504.123077 504.123077zM512.123077 23.630769C242.732308 23.630769 23.753846 242.609231 23.753846 512s218.978462 488.369231 488.369231 488.369231h1732.923077c269.390769 0 488.369231-218.978462 488.369231-488.369231S2514.436923 23.630769 2245.046154 23.630769H512.123077z" opacity=".2" p-id="4519"></path><path d="M2245.046154 1016.123077H512.123077C234.855385 1016.123077 8 789.267692 8 512S234.855385 7.876923 512.123077 7.876923h1732.923077c277.267692 0 504.123077 226.855385 504.123077 504.123077s-226.855385 504.123077-504.123077 504.123077zM512.123077 23.630769C242.732308 23.630769 23.753846 242.609231 23.753846 512s218.978462 488.369231 488.369231 488.369231h1732.923077c269.390769 0 488.369231-218.978462 488.369231-488.369231S2514.436923 23.630769 2245.046154 23.630769H512.123077z" fill="#FFFFFF" opacity=".08" p-id="4520"></path><path d="M2245.046154 1024H512.123077C230.129231 1024 0.123077 793.993846 0.123077 512S230.129231 0 512.123077 0h1732.923077c281.993846 0 512 230.006154 512 512S2527.04 1024 2245.046154 1024zM15.876923 512C15.876923 786.116923 238.006154 1008.246154 512.123077 1008.246154h1732.923077c274.116923 0 496.246154-222.129231 496.246154-496.246154 0 274.116923-222.129231 496.246154-496.246154 496.246154H512.123077C238.006154 1008.246154 15.876923 786.116923 15.876923 512zM512.123077 31.507692C247.458462 31.507692 31.630769 247.335385 31.630769 512S247.458462 992.492308 512.123077 992.492308h1732.923077c264.664615 0 480.492308-215.827692 480.492308-480.492308S2509.710769 31.507692 2245.046154 31.507692H512.123077z" opacity=".08" p-id="4521"></path></svg>